<svg width="43" height="43" viewBox="0 0 43 43" fill="none" xmlns="http://www.w3.org/2000/svg">
<path d="M38.375 14C39.3696 14 40.3234 14.3951 41.0266 15.0983C41.7299 15.8016 42.125 16.7554 42.125 17.75V25.25C42.125 26.2446 41.7299 27.1984 41.0266 27.9016C40.3234 28.6049 39.3696 29 38.375 29H36.3837C35.9266 32.6249 34.1624 35.9585 31.422 38.375C28.6817 40.7915 25.1536 42.1249 21.5 42.125V38.375C24.4837 38.375 27.3452 37.1897 29.455 35.0799C31.5647 32.9702 32.75 30.1087 32.75 27.125V15.875C32.75 12.8913 31.5647 10.0298 29.455 7.92004C27.3452 5.81026 24.4837 4.625 21.5 4.625C18.5163 4.625 15.6548 5.81026 13.545 7.92004C11.4353 10.0298 10.25 12.8913 10.25 15.875V29H4.625C3.63044 29 2.67661 28.6049 1.97335 27.9016C1.27009 27.1984 0.875 26.2446 0.875 25.25V17.75C0.875 16.7554 1.27009 15.8016 1.97335 15.0983C2.67661 14.3951 3.63044 14 4.625 14H6.61625C7.07381 10.3754 8.83827 7.04238 11.5786 4.62626C14.3189 2.21014 17.8467 0.877014 21.5 0.877014C25.1533 0.877014 28.6811 2.21014 31.4214 4.62626C34.1617 7.04238 35.9262 10.3754 36.3837 14H38.375ZM13.55 28.5969L15.5375 25.4169C17.3245 26.5363 19.3913 27.1284 21.5 27.125C23.6087 27.1284 25.6755 26.5363 27.4625 25.4169L29.45 28.5969C27.0674 30.0896 24.3116 30.8793 21.5 30.875C18.6884 30.8793 15.9326 30.0896 13.55 28.5969Z" fill="white"/>
</svg>
