<svg width="41" height="40" viewBox="0 0 41 40" fill="none" xmlns="http://www.w3.org/2000/svg">
<g clip-path="url(#clip0_92_151)">
<path d="M20.8431 -0.0424957C9.79182 -0.0424957 0.799316 8.9475 0.799316 20C0.799316 31.0525 9.79182 40.0425 20.8431 40.0425C31.8943 40.0425 40.8868 31.0525 40.8868 20C40.8868 8.9475 31.8943 -0.0424957 20.8431 -0.0424957ZM20.8431 38.7075C10.5281 38.7075 2.13682 30.315 2.13682 20C2.13682 9.68501 10.5281 1.2925 20.8431 1.2925C31.1581 1.2925 39.5493 9.68501 39.5493 20C39.5493 30.315 31.1581 38.7075 20.8431 38.7075Z" fill="#444444"/>
<path d="M25.2183 8.75H21.8833C17.6358 8.7075 17.0933 11.3363 17.0933 14.1813V16.25H15.2183C15.1335 16.2387 15.0473 16.2471 14.9663 16.2745C14.8853 16.3019 14.8118 16.3476 14.7513 16.408C14.6908 16.4685 14.6451 16.5421 14.6177 16.6231C14.5903 16.704 14.582 16.7903 14.5933 16.875V20.625C14.582 20.7098 14.5903 20.796 14.6177 20.877C14.6451 20.9579 14.6908 21.0315 14.7513 21.092C14.8118 21.1524 14.8853 21.1981 14.9663 21.2255C15.0473 21.253 15.1335 21.2613 15.2183 21.25H17.0933V30.625C17.0829 30.7099 17.092 30.7961 17.12 30.8769C17.1479 30.9577 17.194 31.0311 17.2547 31.0914C17.3153 31.1517 17.389 31.1973 17.47 31.2248C17.551 31.2523 17.6372 31.2609 17.722 31.25H21.5408C21.9095 31.2925 22.2083 30.9938 22.0908 30.625L22.0933 21.25H25.2183C25.303 21.2613 25.3892 21.253 25.4702 21.2255C25.5512 21.1981 25.6248 21.1524 25.6853 21.092C25.7457 21.0315 25.7914 20.9579 25.8188 20.877C25.8462 20.796 25.8546 20.7098 25.8433 20.625V16.875C25.8546 16.7903 25.8462 16.704 25.8188 16.6231C25.7914 16.5421 25.7457 16.4685 25.6853 16.408C25.6248 16.3476 25.5512 16.3019 25.4702 16.2745C25.3892 16.2471 25.303 16.2387 25.2183 16.25H22.0895L22.0933 14.375C22.2145 13.5763 22.2145 13.7063 22.9558 13.75H25.192C25.3658 13.7113 25.5508 13.7325 25.6808 13.6063C25.8108 13.48 25.8858 13.3075 25.842 13.125V9.375C25.8536 9.29033 25.8454 9.20413 25.8181 9.12313C25.7909 9.04213 25.7453 8.96851 25.6849 8.90802C25.6246 8.84753 25.5511 8.8018 25.4701 8.77439C25.3892 8.74698 25.303 8.73864 25.2183 8.75ZM24.5495 12.43L22.982 12.37C21.0408 12.37 20.8783 13.4238 20.8783 14.5025L20.8733 16.8725C20.8731 16.9603 20.8903 17.0472 20.9237 17.1283C20.9572 17.2095 21.0063 17.2832 21.0683 17.3453C21.1303 17.4074 21.204 17.4567 21.285 17.4903C21.3661 17.5239 21.453 17.5413 21.5408 17.5413H24.5933V19.9563H21.5433C21.3661 19.9563 21.1962 20.0265 21.0708 20.1517C20.9455 20.2768 20.8749 20.4466 20.8745 20.6238L20.8733 30H18.3433V20.625C18.3433 20.2563 18.092 19.9575 17.722 19.9575H15.8433V17.5425H17.722C17.8097 17.5426 17.8966 17.5255 17.9777 17.492C18.0588 17.4586 18.1324 17.4095 18.1945 17.3475C18.3195 17.2213 18.342 17.0513 18.342 16.8738V14.18C18.342 11.3775 18.9083 10.0425 21.882 10.0425H24.5483V12.43H24.5495Z" fill="#444444"/>
</g>
<defs>
<clipPath id="clip0_92_151">
<rect width="40" height="40" fill="white" transform="translate(0.843262)"/>
</clipPath>
</defs>
</svg>
