<svg width="41" height="40" viewBox="0 0 41 40" fill="none" xmlns="http://www.w3.org/2000/svg">
<path d="M20.8434 11.9883C16.4099 11.9883 12.8317 15.5664 12.8317 20C12.8317 24.4336 16.4099 28.0117 20.8434 28.0117C25.277 28.0117 28.8552 24.4336 28.8552 20C28.8552 15.5664 25.277 11.9883 20.8434 11.9883ZM20.8434 25.207C17.9763 25.207 15.6364 22.8672 15.6364 20C15.6364 17.1328 17.9763 14.793 20.8434 14.793C23.7106 14.793 26.0505 17.1328 26.0505 20C26.0505 22.8672 23.7106 25.207 20.8434 25.207ZM29.1833 9.79297C28.1481 9.79297 27.3122 10.6289 27.3122 11.6641C27.3122 12.6992 28.1481 13.5352 29.1833 13.5352C30.2184 13.5352 31.0544 12.7031 31.0544 11.6641C31.0547 11.4183 31.0065 11.1748 30.9126 10.9477C30.8187 10.7205 30.6808 10.5141 30.507 10.3403C30.3332 10.1665 30.1268 10.0287 29.8997 9.93477C29.6725 9.84085 29.4291 9.79266 29.1833 9.79297ZM36.4606 20C36.4606 17.8438 36.4802 15.707 36.3591 13.5547C36.238 11.0547 35.6677 8.83594 33.8395 7.00781C32.0075 5.17578 29.7927 4.60938 27.2927 4.48828C25.1364 4.36719 22.9997 4.38672 20.8474 4.38672C18.6911 4.38672 16.5544 4.36719 14.402 4.48828C11.902 4.60938 9.68329 5.17969 7.85517 7.00781C6.02313 8.83985 5.45673 11.0547 5.33563 13.5547C5.21454 15.7109 5.23407 17.8477 5.23407 20C5.23407 22.1523 5.21454 24.293 5.33563 26.4453C5.45673 28.9453 6.02704 31.1641 7.85517 32.9922C9.6872 34.8242 11.902 35.3906 14.402 35.5117C16.5583 35.6328 18.695 35.6133 20.8474 35.6133C23.0036 35.6133 25.1403 35.6328 27.2927 35.5117C29.7927 35.3906 32.0114 34.8203 33.8395 32.9922C35.6716 31.1602 36.238 28.9453 36.3591 26.4453C36.4841 24.293 36.4606 22.1563 36.4606 20ZM33.0231 29.2109C32.738 29.9219 32.3942 30.4531 31.8434 31C31.2927 31.5508 30.7653 31.8945 30.0544 32.1797C27.9997 32.9961 23.1208 32.8125 20.8434 32.8125C18.5661 32.8125 13.6833 32.9961 11.6286 32.1836C10.9177 31.8984 10.3864 31.5547 9.83954 31.0039C9.28876 30.4531 8.94501 29.9258 8.65985 29.2148C7.84735 27.1563 8.03095 22.2773 8.03095 20C8.03095 17.7227 7.84735 12.8398 8.65985 10.7852C8.94501 10.0742 9.28876 9.54297 9.83954 8.9961C10.3903 8.44922 10.9177 8.10156 11.6286 7.81641C13.6833 7.00391 18.5661 7.1875 20.8434 7.1875C23.1208 7.1875 28.0036 7.00391 30.0583 7.81641C30.7692 8.10156 31.3005 8.44531 31.8474 8.9961C32.3981 9.54688 32.7419 10.0742 33.027 10.7852C33.8395 12.8398 33.6559 17.7227 33.6559 20C33.6559 22.2773 33.8395 27.1563 33.0231 29.2109Z" fill="#444444"/>
</svg>
