<svg width="45" height="45" viewBox="0 0 45 45" fill="none" xmlns="http://www.w3.org/2000/svg">
<path d="M29.5312 0.0439453L45 7.77832V25.0269L42.1875 23.6206V10.9204L30.9375 16.5454V22.2144L28.125 23.6206V16.5454L16.875 10.9204V15.9082L14.0625 14.502V7.77832L29.5312 0.0439453ZM29.5312 14.1064L33.4204 12.1509L23.2471 6.32812L18.6108 8.65723L29.5312 14.1064ZM36.4526 10.6567L40.4517 8.65723L29.5312 3.18604L26.2573 4.83398L36.4526 10.6567ZM25.3125 25.0269L22.5 26.4331V26.4111L14.0625 30.6299V40.6274L22.5 36.3867V39.5508L12.6562 44.4727L0 38.1226V23.269L12.6562 16.9409L25.3125 23.269V25.0269ZM11.25 40.6274V30.6299L2.8125 26.4111V36.3867L11.25 40.6274ZM12.6562 28.1909L20.7642 24.1479L12.6562 20.083L4.54834 24.1479L12.6562 28.1909ZM25.3125 28.1689L35.1562 23.2471L45 28.1689V39.7485L35.1562 44.6704L25.3125 39.7485V28.1689ZM33.75 40.8252V34.1235L28.125 31.311V38.0127L33.75 40.8252ZM42.1875 38.0127V31.311L36.5625 34.1235V40.8252L42.1875 38.0127ZM35.1562 31.6846L40.4517 29.0259L35.1562 26.3892L29.8608 29.0259L35.1562 31.6846Z" fill="white"/>
</svg>
