<svg width="41" height="35" viewBox="0 0 41 35" fill="none" xmlns="http://www.w3.org/2000/svg">
<path d="M14.8806 6.24999C14.8806 4.75964 15.4727 3.33033 16.5265 2.27649C17.5803 1.22265 19.0096 0.630615 20.5 0.630615C21.9904 0.630615 23.4197 1.22265 24.4735 2.27649C25.5273 3.33033 26.1194 4.75964 26.1194 6.24999C26.1194 7.74034 25.5273 9.16965 24.4735 10.2235C23.4197 11.2773 21.9904 11.8694 20.5 11.8694C19.0096 11.8694 17.5803 11.2773 16.5265 10.2235C15.4727 9.16965 14.8806 7.74034 14.8806 6.24999ZM20.5 3.44312C20.1314 3.44312 19.7664 3.51572 19.4259 3.65678C19.0853 3.79783 18.7759 4.00459 18.5152 4.26523C18.2546 4.52587 18.0478 4.8353 17.9068 5.17585C17.7657 5.51639 17.6931 5.88139 17.6931 6.24999C17.6931 6.61859 17.7657 6.98359 17.9068 7.32413C18.0478 7.66468 18.2546 7.97411 18.5152 8.23475C18.7759 8.49539 19.0853 8.70215 19.4259 8.84321C19.7664 8.98426 20.1314 9.05687 20.5 9.05687C21.2444 9.05687 21.9584 8.76114 22.4848 8.23475C23.0112 7.70836 23.3069 6.99442 23.3069 6.24999C23.3069 5.50556 23.0112 4.79162 22.4848 4.26523C21.9584 3.73884 21.2444 3.44312 20.5 3.44312ZM28.9375 7.65624C28.9375 7.10223 29.0466 6.55364 29.2586 6.04179C29.4706 5.52995 29.7814 5.06488 30.1731 4.67313C30.5649 4.28139 31.03 3.97064 31.5418 3.75862C32.0536 3.54661 32.6022 3.43749 33.1562 3.43749C33.7103 3.43749 34.2589 3.54661 34.7707 3.75862C35.2825 3.97064 35.7476 4.28139 36.1394 4.67313C36.5311 5.06488 36.8419 5.52995 37.0539 6.04179C37.2659 6.55364 37.375 7.10223 37.375 7.65624C37.375 8.77512 36.9305 9.84818 36.1394 10.6393C35.3482 11.4305 34.2751 11.875 33.1562 11.875C32.0374 11.875 30.9643 11.4305 30.1731 10.6393C29.382 9.84818 28.9375 8.77512 28.9375 7.65624ZM33.1562 6.24999C32.7833 6.24999 32.4256 6.39815 32.1619 6.66187C31.8982 6.92559 31.75 7.28328 31.75 7.65624C31.75 8.0292 31.8982 8.38689 32.1619 8.65061C32.4256 8.91433 32.7833 9.06249 33.1562 9.06249C33.5292 9.06249 33.8869 8.91433 34.1506 8.65061C34.4143 8.38689 34.5625 8.0292 34.5625 7.65624C34.5625 7.28328 34.4143 6.92559 34.1506 6.66187C33.8869 6.39815 33.5292 6.24999 33.1562 6.24999ZM7.84375 3.43749C6.72487 3.43749 5.65181 3.88196 4.86064 4.67313C4.06947 5.4643 3.625 6.53736 3.625 7.65624C3.625 8.77512 4.06947 9.84818 4.86064 10.6393C5.65181 11.4305 6.72487 11.875 7.84375 11.875C8.96263 11.875 10.0357 11.4305 10.8269 10.6393C11.618 9.84818 12.0625 8.77512 12.0625 7.65624C12.0625 6.53736 11.618 5.4643 10.8269 4.67313C10.0357 3.88196 8.96263 3.43749 7.84375 3.43749ZM6.4375 7.65624C6.4375 7.28328 6.58566 6.92559 6.84938 6.66187C7.1131 6.39815 7.47079 6.24999 7.84375 6.24999C8.21671 6.24999 8.5744 6.39815 8.83812 6.66187C9.10184 6.92559 9.25 7.28328 9.25 7.65624C9.25 8.0292 9.10184 8.38689 8.83812 8.65061C8.5744 8.91433 8.21671 9.06249 7.84375 9.06249C7.47079 9.06249 7.1131 8.91433 6.84938 8.65061C6.58566 8.38689 6.4375 8.0292 6.4375 7.65624ZM10.0038 14.6875C9.50877 15.5421 9.24871 16.5124 9.25 17.5H3.625V24.5312C3.62477 25.2308 3.79852 25.9195 4.1306 26.5352C4.46267 27.1509 4.94266 27.6744 5.52734 28.0585C6.11203 28.4427 6.78306 28.6753 7.48002 28.7357C8.17699 28.796 8.87802 28.682 9.52 28.4041C9.72813 29.335 10.0544 30.2237 10.4763 31.0534C9.40881 31.4844 8.25187 31.6467 7.10703 31.5261C5.9622 31.4055 4.86449 31.0057 3.91031 30.3617C2.95612 29.7177 2.17465 28.8492 1.63452 27.8327C1.09439 26.8161 0.812117 25.6824 0.8125 24.5312V17.5C0.8125 16.7541 1.10882 16.0387 1.63626 15.5113C2.16371 14.9838 2.87908 14.6875 3.625 14.6875H10.0038ZM30.5238 31.0534C31.5912 31.4844 32.7481 31.6467 33.893 31.5261C35.0378 31.4055 36.1355 31.0057 37.0897 30.3617C38.0439 29.7177 38.8254 28.8492 39.3655 27.8327C39.9056 26.8161 40.1879 25.6824 40.1875 24.5312V17.5C40.1875 16.7541 39.8912 16.0387 39.3637 15.5113C38.8363 14.9838 38.1209 14.6875 37.375 14.6875H30.9963C31.4744 15.5144 31.75 16.4734 31.75 17.5H37.375V24.5312C37.3752 25.2308 37.2015 25.9195 36.8694 26.5352C36.5373 27.1509 36.0573 27.6744 35.4727 28.0585C34.888 28.4427 34.2169 28.6753 33.52 28.7357C32.823 28.796 32.122 28.682 31.48 28.4041C31.2691 29.335 30.9456 30.2237 30.5238 31.0534ZM14.875 14.6847C14.1291 14.6847 13.4137 14.981 12.8863 15.5084C12.3588 16.0359 12.0625 16.7513 12.0625 17.4972V25.9375C12.0625 28.1753 12.9514 30.3214 14.5338 31.9037C16.1161 33.486 18.2622 34.375 20.5 34.375C22.7378 34.375 24.8839 33.486 26.4662 31.9037C28.0486 30.3214 28.9375 28.1753 28.9375 25.9375V17.5C28.9375 16.7541 28.6412 16.0387 28.1137 15.5113C27.5863 14.9838 26.8709 14.6875 26.125 14.6875H14.875V14.6847ZM14.875 17.4972H26.125V25.9375C26.125 27.4293 25.5324 28.8601 24.4775 29.915C23.4226 30.9699 21.9918 31.5625 20.5 31.5625C19.0082 31.5625 17.5774 30.9699 16.5225 29.915C15.4676 28.8601 14.875 27.4293 14.875 25.9375V17.5V17.4972Z" fill="white"/>
</svg>
