<svg width="41" height="40" viewBox="0 0 41 40" fill="none" xmlns="http://www.w3.org/2000/svg">
<path d="M33.1268 13.7917V14.625C33.1268 23.0167 26.7601 32.6333 15.1101 32.6333C11.6709 32.6408 8.3047 31.6413 5.42676 29.7583C5.92657 29.8262 6.43074 29.8568 6.93509 29.85C9.78593 29.8578 12.5566 28.9069 14.8018 27.15C13.4773 27.1305 12.1927 26.694 11.1306 25.9026C10.0684 25.1112 9.28267 24.0052 8.88509 22.7417C9.2796 22.8253 9.68181 22.8672 10.0851 22.8667C10.6482 22.8668 11.2088 22.7911 11.7518 22.6417C10.3172 22.3557 9.02669 21.5801 8.10092 20.4476C7.17515 19.3151 6.67172 17.8961 6.67676 16.4333V16.35C7.55443 16.8403 8.5384 17.1091 9.54342 17.1333C8.20559 16.253 7.25441 14.895 6.88423 13.3368C6.51406 11.7787 6.75283 10.138 7.55176 8.75C9.14364 10.7079 11.1297 12.3089 13.381 13.4489C15.6322 14.5888 18.0981 15.2423 20.6184 15.3667C20.4937 14.8937 20.4348 14.4058 20.4434 13.9167C20.3965 12.6241 20.7491 11.3485 21.4532 10.2635C22.1573 9.17848 23.1787 8.33685 24.3782 7.85319C25.5778 7.36952 26.8974 7.26733 28.1571 7.56052C29.4169 7.8537 30.5557 8.52803 31.4184 9.49167C32.8366 9.20548 34.197 8.68442 35.4434 7.95C34.9707 9.44281 33.9651 10.7094 32.6184 11.5083C33.8764 11.335 35.1029 10.9814 36.2601 10.4583C35.4215 11.7464 34.3605 12.875 33.1268 13.7917V13.7917Z" stroke="#444444" stroke-width="0.833333" stroke-linecap="round" stroke-linejoin="round"/>
</svg>
